# xmcd CD database file
#
# Track frame offsets:
#	150
#	25087
#	48560
#	77300
#	103972
#	134485
#
# Disc length: 2242 seconds
#
# Revision: 0
# Processed by: cddbd v1.4PL0 Copyright (c) Steve Scherf et al.
# Submitted via: CDex 1.50Beta6
#
DISCID=4708c006
DTITLE=Sonny Criss - Up, Up and Away
DYEAR=1967
DGENRE=Jazz
TTITLE0=Up, Up and Away
TTITLE1=Willow Weep for Me
TTITLE2=This is for Benny
TTITLE3=Sunny
TTITLE4=Scrapple from the Apple
TTITLE5=Paris Blues
EXTD=YEAR: 1967
EXTT0=
EXTT1=
EXTT2=
EXTT3=
EXTT4=
EXTT5=
PLAYORDER=
